<svg width="20" height="20" viewBox="0 0 20 20" fill="none" xmlns="http://www.w3.org/2000/svg">
  <path d="M2.91602 8.33366C2.91602 5.19096 2.91602 3.61961 3.95335 2.6433C4.99068 1.66699 6.66023 1.66699 9.99935 1.66699H10.6433C13.361 1.66699 14.7198 1.66699 15.6635 2.33185C15.9338 2.52235 16.1739 2.74826 16.3763 3.00273C17.0827 3.89089 17.0827 5.16979 17.0827 7.7276V9.84881C17.0827 12.3181 17.0827 13.5528 16.6919 14.5389C16.0637 16.1241 14.7351 17.3746 13.0507 17.9659C12.003 18.3337 10.6912 18.3337 8.06753 18.3337C6.56831 18.3337 5.8187 18.3337 5.22 18.1235C4.25751 17.7856 3.49831 17.0711 3.13932 16.1652C2.91602 15.6017 2.91602 14.8962 2.91602 13.4852V8.33366Z" stroke="#6B7280" stroke-width="1.5" stroke-linejoin="round"/>
  <path d="M17.0833 10C17.0833 11.5341 15.8397 12.7778 14.3056 12.7778C13.7507 12.7778 13.0966 12.6806 12.5572 12.8251C12.0779 12.9535 11.7035 13.3279 11.5751 13.8072C11.4306 14.3466 11.5278 15.0007 11.5278 15.5556C11.5278 17.0897 10.2841 18.3333 8.75 18.3333" stroke="#6B7280" stroke-width="1.5" stroke-linecap="round" stroke-linejoin="round"/>
  <path d="M6.66602 5.83398H12.4993" stroke="#6B7280" stroke-width="1.5" stroke-linecap="round" stroke-linejoin="round"/>
  <path d="M6.66602 9.16699H9.16602" stroke="#6B7280" stroke-width="1.5" stroke-linecap="round" stroke-linejoin="round"/>
</svg>