<svg width="64" height="23" viewBox="0 0 64 23" fill="none" xmlns="http://www.w3.org/2000/svg">
  <path d="M10.499 10.2822H16.6592C17.984 11.9217 18.6464 13.6604 18.6464 15.482C18.6464 17.6017 17.8681 19.3902 16.3115 20.8309C14.7549 22.2716 12.8505 23.0002 10.5818 23.0002C7.6341 23.0002 5.13356 21.8741 3.08014 19.6386C1.02671 17.403 0 14.6706 0 11.458C0 8.22881 1.04327 5.54611 3.14638 3.40988C5.23292 1.27366 7.84938 0.197266 10.9958 0.197266C12.0722 0.197266 13.2479 0.412546 14.5561 0.843102V7.30146C13.546 6.82122 12.6021 6.58938 11.7741 6.58938C10.2506 6.58938 9.02514 7.05306 8.06466 7.99697C7.10419 8.94088 6.62395 10.1663 6.62395 11.6733C6.62395 13.2133 7.07107 14.4222 7.9653 15.333C8.85954 16.2438 10.0518 16.6909 11.5754 16.6909C12.5358 16.6909 13.0161 16.4094 13.0161 15.8464C13.0161 15.4158 12.7014 15.2171 12.0556 15.2171H10.5155V10.2822H10.499Z" fill="#280F26"/>
  <path d="M20.831 6.82129H26.776V15.7802C26.776 16.6744 27.1569 17.1381 27.9021 17.1381C28.6473 17.1381 29.0116 16.691 29.0116 15.7802V6.82129H34.9566V15.6643C34.9566 17.7177 34.2776 19.4565 32.9032 20.8806C31.5287 22.3048 29.8561 23.0003 27.869 23.0003C25.6168 23.0003 23.7952 22.1723 22.4208 20.5329C21.3444 19.2578 20.8145 17.4693 20.8145 15.184V6.82129H20.831Z" fill="#280F26"/>
  <path d="M47.1295 6.4396V12.7986C46.7155 12.5668 46.3346 12.4508 46.0034 12.4508C44.927 12.4508 44.3805 13.2788 44.3805 14.9348V22.453H38.4355V13.7922C38.4355 11.5069 39.0648 9.66878 40.3068 8.31087C41.5654 6.95296 43.2214 6.274 45.3245 6.274C45.7881 6.25744 46.3843 6.32368 47.1295 6.4396Z" fill="#280F26"/>
  <path d="M48.8838 6.82129H54.8287V15.7802C54.8287 16.6744 55.2096 17.1381 55.9548 17.1381C56.7 17.1381 57.0643 16.691 57.0643 15.7802V6.82129H63.0093V15.6643C63.0093 17.7177 62.3304 19.4565 60.9559 20.8806C59.5814 22.3048 57.9089 23.0003 55.9217 23.0003C53.6696 23.0003 51.848 22.1723 50.4735 20.5329C49.3971 19.2578 48.8672 17.4693 48.8672 15.184V6.82129H48.8838Z" fill="#280F26"/>
  <path d="M21.1455 0H22.9008C24.1925 0 24.9708 0.827993 24.9708 1.88783C24.9708 2.58334 24.6396 3.27886 23.8778 3.56037L25.153 5.63036H23.9275L22.2384 2.8483H22.7683C23.5963 2.8483 23.8778 2.30182 23.8778 1.88783C23.8778 1.32479 23.5632 1.01015 22.7683 1.01015H22.2053V5.63036H21.1289V0H21.1455Z" fill="#77B800"/>
  <path d="M28.7617 0H32.0903V1.02671H29.8215V2.28526H32.0903V3.31198H29.8215V4.60365H32.0903V5.63036H28.7617V0Z" fill="#77B800"/>
  <path d="M35.8662 0H37.075L39.4597 3.77565V0H40.5361V5.6138H39.3934L36.926 1.70567V5.6138H35.8496V0H35.8662Z" fill="#77B800"/>
  <path d="M45.7541 1.02671H44.2637V0H48.3208V1.02671H46.8305V5.6138H45.7541V1.02671Z" fill="#77B800"/>
  <path d="M52.8241 0H53.9005L55.8877 5.6138H54.7782L54.447 4.63677H52.2942L51.963 5.6138H50.8535L52.8241 0ZM52.642 3.62661H54.0827L53.3541 1.54007L52.642 3.62661Z" fill="#77B800"/>
  <path d="M59.5332 0H60.6096V4.58709H62.6465V5.6138H59.5332V0Z" fill="#77B800"/>
</svg>