<svg width="18" height="18" viewBox="0 0 18 18" fill="none" xmlns="http://www.w3.org/2000/svg">
  <path d="M8.99999 1.5C8.58599 1.5 8.25 1.836 8.25 2.25V3.75C8.25 4.164 8.58599 4.5 8.99999 4.5C9.41399 4.5 9.74999 4.164 9.74999 3.75V2.25C9.74999 1.836 9.41399 1.5 8.99999 1.5ZM4.21875 3.46875C4.02675 3.46875 3.84975 3.5565 3.7035 3.7035C3.41025 3.996 3.41025 4.4655 3.7035 4.758L4.71075 5.78925C5.004 6.08175 5.49674 6.0825 5.78924 5.78925C6.08174 5.496 6.08249 5.00326 5.78924 4.71076L4.75799 3.7035C4.61099 3.5565 4.41075 3.46875 4.21875 3.46875ZM13.758 3.49201C13.566 3.49201 13.389 3.5565 13.242 3.7035L12.2107 4.71076C11.9182 5.00401 11.9182 5.496 12.2107 5.78925C12.504 6.08175 12.996 6.08175 13.2892 5.78925L14.2965 4.758C14.5897 4.46475 14.5897 3.996 14.2965 3.7035C14.1502 3.5565 13.95 3.49201 13.758 3.49201ZM2.25 8.25C1.836 8.25 1.5 8.58601 1.5 9.00001C1.5 9.41401 1.836 9.75001 2.25 9.75001H3.75C4.164 9.75001 4.5 9.41401 4.5 9.00001C4.5 8.58601 4.164 8.25 3.75 8.25H2.25ZM14.25 8.25C13.836 8.25 13.5 8.58601 13.5 9.00001C13.5 9.41401 13.836 9.75001 14.25 9.75001H15.75C16.164 9.75001 16.5 9.41401 16.5 9.00001C16.5 8.58601 16.164 8.25 15.75 8.25H14.25ZM5.25 12C5.058 11.9993 4.85775 12.0645 4.71075 12.2108L3.6795 13.242C3.38625 13.5345 3.38775 14.0033 3.6795 14.2965C3.972 14.5905 4.46399 14.589 4.75799 14.2965L5.78924 13.2893C6.08249 12.9968 6.08099 12.5048 5.78924 12.2108C5.64299 12.0645 5.442 12.0008 5.25 12ZM12.75 12C12.558 12 12.357 12.0645 12.2107 12.2108C11.9182 12.504 11.9175 12.9968 12.2107 13.2893L13.266 14.3205C13.5585 14.613 14.028 14.6138 14.3205 14.3205C14.613 14.0273 14.6137 13.5345 14.3205 13.242L13.2892 12.2108C13.1422 12.0645 12.942 12 12.75 12ZM8.99999 13.5C8.58599 13.5 8.25 13.836 8.25 14.25V15.75C8.25 16.164 8.58599 16.5 8.99999 16.5C9.41399 16.5 9.74999 16.164 9.74999 15.75V14.25C9.74999 13.836 9.41399 13.5 8.99999 13.5Z" fill="#E5E7EB"/>
  <path fill-rule="evenodd" clip-rule="evenodd" d="M9 11.25C10.2426 11.25 11.25 10.2426 11.25 9C11.25 7.75736 10.2426 6.75 9 6.75C7.75736 6.75 6.75 7.75736 6.75 9C6.75 10.2426 7.75736 11.25 9 11.25ZM9 12.75C11.0711 12.75 12.75 11.0711 12.75 9C12.75 6.92893 11.0711 5.25 9 5.25C6.92893 5.25 5.25 6.92893 5.25 9C5.25 11.0711 6.92893 12.75 9 12.75Z" fill="#111928"/>
</svg>