<svg width="23" height="23" viewBox="0 0 23 23" fill="none" xmlns="http://www.w3.org/2000/svg">
  <path d="M13.4154 7.66602H9.58203C7.20345 7.66602 6.70703 8.16243 6.70703 10.541V21.0827H16.2904V10.541C16.2904 8.16243 15.7939 7.66602 13.4154 7.66602Z" stroke="#6CA700" stroke-width="1.5" stroke-linejoin="round"/>
  <path d="M10.541 11.5L12.4577 11.5M10.541 14.375H12.4577M10.541 17.25H12.4577" stroke="#6CA700" stroke-width="1.5" stroke-linecap="round" stroke-linejoin="round"/>
  <path d="M20.1237 21.0827V7.84392C20.1237 6.66681 20.1237 6.07825 19.8374 5.60527C19.5512 5.1323 19.0357 4.86909 18.0047 4.34267L13.8439 2.21824C12.7318 1.65041 12.457 1.85053 12.457 3.09355V7.38187" stroke="#6CA700" stroke-width="1.5" stroke-linecap="round" stroke-linejoin="round"/>
  <path d="M2.875 21.0833V12.4583C2.875 11.6655 3.04047 11.5 3.83333 11.5H6.70833" stroke="#6CA700" stroke-width="1.5" stroke-linecap="round" stroke-linejoin="round"/>
  <path d="M21.0827 21.083H1.91602" stroke="#6CA700" stroke-width="1.5" stroke-linecap="round" stroke-linejoin="round"/>
</svg>