<svg width="20" height="20" viewBox="0 0 20 20" fill="none" xmlns="http://www.w3.org/2000/svg">
  <path d="M11.2507 10.8333L14.1673 7.5M11.6673 12.5C11.6673 13.4205 10.9211 14.1667 10.0007 14.1667C9.08018 14.1667 8.33398 13.4205 8.33398 12.5C8.33398 11.5795 9.08018 10.8333 10.0007 10.8333C10.9211 10.8333 11.6673 11.5795 11.6673 12.5Z" stroke="#2B9F97" stroke-width="1.5" stroke-linecap="round"/>
  <path d="M5 10C5 7.23858 7.23858 5 10 5C10.9107 5 11.7646 5.24349 12.5 5.66891" stroke="#2B9F97" stroke-width="1.5" stroke-linecap="round"/>
  <path d="M2.08398 9.99967C2.08398 6.26772 2.08398 4.40175 3.24335 3.24238C4.40272 2.08301 6.2687 2.08301 10.0007 2.08301C13.7326 2.08301 15.5986 2.08301 16.7579 3.24238C17.9173 4.40175 17.9173 6.26772 17.9173 9.99967C17.9173 13.7316 17.9173 15.5976 16.7579 16.757C15.5986 17.9163 13.7326 17.9163 10.0007 17.9163C6.2687 17.9163 4.40272 17.9163 3.24335 16.757C2.08398 15.5976 2.08398 13.7316 2.08398 9.99967Z" stroke="#2B9F97" stroke-width="1.5"/>
</svg>