<svg width="20" height="20" viewBox="0 0 20 20" fill="none" xmlns="http://www.w3.org/2000/svg">
  <path d="M14.1654 1.66699V3.33366M9.9987 1.66699V3.33366M5.83203 1.66699V3.33366" stroke="#6B7280" stroke-width="1.5" stroke-linecap="round" stroke-linejoin="round"/>
  <path d="M2.91602 8.33333C2.91602 5.58347 2.91602 4.20854 3.77029 3.35427C4.62456 2.5 5.99949 2.5 8.74935 2.5L11.2493 2.5C13.9992 2.5 15.3741 2.5 16.2284 3.35427C17.0827 4.20854 17.0827 5.58347 17.0827 8.33333V12.5C17.0827 15.2499 17.0827 16.6248 16.2284 17.4791C15.3741 18.3333 13.9992 18.3333 11.2493 18.3333H8.74935C5.99949 18.3333 4.62456 18.3333 3.77029 17.4791C2.91602 16.6248 2.91602 15.2499 2.91602 12.5L2.91602 8.33333Z" stroke="#6B7280" stroke-width="1.5" stroke-linecap="round" stroke-linejoin="round"/>
  <path d="M11.25 13.334H14.1667" stroke="#6B7280" stroke-width="1.5" stroke-linecap="round"/>
  <path d="M11.25 7.5H14.1667" stroke="#6B7280" stroke-width="1.5" stroke-linecap="round"/>
  <path d="M5.83203 8.33366C5.83203 8.33366 6.2487 8.33366 6.66536 9.16699C6.66536 9.16699 7.98889 7.08366 9.16536 6.66699" stroke="#6B7280" stroke-width="1.5" stroke-linecap="round" stroke-linejoin="round"/>
  <path d="M5.83203 14.1667C5.83203 14.1667 6.2487 14.1667 6.66536 15C6.66536 15 7.98889 12.9167 9.16536 12.5" stroke="#6B7280" stroke-width="1.5" stroke-linecap="round" stroke-linejoin="round"/>
</svg>