<svg width="16" height="16" viewBox="0 0 16 16" fill="none" xmlns="http://www.w3.org/2000/svg">
  <path d="M7.40016 2C4.96705 2.00438 3.69295 2.06411 2.87871 2.87836C2 3.75706 2 5.17132 2 7.99983C2 10.8283 2 12.2426 2.8787 13.1213C3.75741 14 5.17166 14 8.00017 14C10.8287 14 12.2429 14 13.1216 13.1213C13.9359 12.3071 13.9956 11.033 14 8.59984" stroke="#6B7280" stroke-width="1.5" stroke-linecap="round" stroke-linejoin="round"/>
  <path d="M14.2246 2.86484C14.5181 2.57259 14.5192 2.09772 14.2269 1.80418C13.9347 1.51064 13.4598 1.50959 13.1663 1.80183L14.2246 2.86484ZM6.80483 8.13516C6.51129 8.42741 6.51024 8.90228 6.80248 9.19582C7.09473 9.48936 7.5696 9.49041 7.86314 9.19817L6.80483 8.13516ZM13.353 2.15138L13.2222 2.88988L13.353 2.15138ZM10.6673 1.25C10.253 1.25004 9.91729 1.58585 9.91733 2.00007C9.91736 2.41428 10.2532 2.75004 10.6674 2.75L10.6673 1.25ZM13.2507 5.33333C13.2507 5.74755 13.5864 6.08333 14.0007 6.08333C14.4149 6.08333 14.7507 5.74755 14.7507 5.33333L13.2507 5.33333ZM13.8493 2.64783L14.5878 2.51717V2.51717L13.8493 2.64783ZM13.1663 1.80183L6.80483 8.13516L7.86314 9.19817L14.2246 2.86484L13.1663 1.80183ZM13.4838 1.41287C12.9968 1.32662 12.2757 1.28808 11.7144 1.26928C11.4257 1.25961 11.1648 1.2548 10.9762 1.2524C10.8817 1.2512 10.8051 1.2506 10.7519 1.2503C10.7252 1.25015 10.7044 1.25008 10.6901 1.25004C10.6829 1.25002 10.6774 1.25001 10.6735 1.25C10.6716 1.25 10.6701 1.25 10.6691 1.25C10.6686 1.25 10.6681 1.25 10.6678 1.25C10.6677 1.25 10.6676 1.25 10.6675 1.25C10.6674 1.25 10.6674 1.25 10.6673 1.25C10.6673 1.25 10.6673 1.25 10.6673 2C10.6674 2.75 10.6674 2.75 10.6674 2.75C10.6674 2.75 10.6673 2.75 10.6674 2.75C10.6674 2.75 10.6674 2.75 10.6675 2.75C10.6676 2.75 10.6679 2.75 10.6682 2.75C10.6689 2.75 10.6701 2.75 10.6717 2.75C10.6748 2.75001 10.6797 2.75002 10.6861 2.75003C10.699 2.75007 10.7183 2.75014 10.7434 2.75028C10.7935 2.75056 10.8666 2.75113 10.9571 2.75228C11.1383 2.75459 11.3884 2.75921 11.6642 2.76844C12.2318 2.78745 12.8535 2.82459 13.2222 2.88988L13.4838 1.41287ZM14.0007 5.33333C14.7507 5.33333 14.7507 5.3333 14.7507 5.33325C14.7507 5.33323 14.7507 5.33318 14.7507 5.33313C14.7507 5.33303 14.7507 5.33291 14.7507 5.33276C14.7507 5.33245 14.7507 5.33204 14.7507 5.33151C14.7507 5.33047 14.7507 5.32898 14.7507 5.32706C14.7507 5.32324 14.7506 5.3177 14.7506 5.31054C14.7506 5.29622 14.7505 5.27539 14.7504 5.24875C14.75 5.19547 14.7494 5.11887 14.7482 5.02445C14.7458 4.83584 14.741 4.575 14.7313 4.28631C14.7125 3.72507 14.674 3.00404 14.5878 2.51717L13.1108 2.77849C13.176 3.14724 13.2131 3.76896 13.2322 4.33657C13.2414 4.61231 13.246 4.86241 13.2484 5.04364C13.2495 5.13414 13.2501 5.20718 13.2504 5.25732C13.2505 5.28239 13.2506 5.30171 13.2506 5.31461C13.2506 5.32106 13.2507 5.3259 13.2507 5.32905C13.2507 5.33063 13.2507 5.33178 13.2507 5.33249C13.2507 5.33285 13.2507 5.3331 13.2507 5.33324C13.2507 5.33331 13.2507 5.33336 13.2507 5.33337C13.2507 5.33338 13.2507 5.33337 13.2507 5.33337C13.2507 5.33336 13.2507 5.33333 14.0007 5.33333ZM13.2222 2.88988C13.2075 2.88727 13.1786 2.87674 13.1512 2.84932C13.1238 2.82191 13.1133 2.79313 13.1108 2.77849L14.5878 2.51717C14.4868 1.94626 14.0549 1.51401 13.4838 1.41287L13.2222 2.88988Z" fill="#6B7280"/>
</svg>