<svg width="23" height="23" viewBox="0 0 23 23" fill="none" xmlns="http://www.w3.org/2000/svg">
  <path d="M3.83398 17.8692L3.83398 7.71899C3.83398 4.9839 3.83398 3.61636 4.67605 2.76668C5.51812 1.91699 6.87341 1.91699 9.58398 1.91699L13.4173 1.91699C16.1279 1.91699 17.4832 1.91699 18.3252 2.76668C19.1673 3.61636 19.1673 4.9839 19.1673 7.71899L19.1673 17.8692C19.1673 19.3179 19.1673 20.0422 18.7246 20.3274C18.0011 20.7934 16.8827 19.8162 16.3202 19.4615C15.8555 19.1684 15.6231 19.0218 15.3652 19.0133C15.0865 19.0042 14.85 19.1447 14.3477 19.4615L12.5165 20.6164C12.0225 20.9279 11.7755 21.0837 11.5007 21.0837C11.2258 21.0837 10.9788 20.9279 10.4848 20.6164L8.65356 19.4615C8.18879 19.1684 7.95641 19.0218 7.6985 19.0133C7.4198 19.0042 7.18329 19.1447 6.68107 19.4615C6.1186 19.8162 5.00016 20.7934 4.27669 20.3274C3.83398 20.0422 3.83398 19.3179 3.83398 17.8692Z" stroke="#6CA700" stroke-width="1.5" stroke-linecap="round" stroke-linejoin="round"/>
  <path d="M10.543 10.542L7.66797 10.542" stroke="#6CA700" stroke-width="1.5" stroke-linecap="round" stroke-linejoin="round"/>
  <path d="M13.418 6.70898L7.66797 6.70898" stroke="#6CA700" stroke-width="1.5" stroke-linecap="round" stroke-linejoin="round"/>
</svg>