<svg width="20" height="20" viewBox="0 0 20 20" fill="none" xmlns="http://www.w3.org/2000/svg">
  <path d="M1.66602 9.99967C1.66602 7.05177 1.66602 5.57782 2.54335 4.59376C2.68367 4.43636 2.83833 4.2908 3.00556 4.15873C4.05113 3.33301 5.6172 3.33301 8.74935 3.33301H11.2493C14.3815 3.33301 15.9476 3.33301 16.9931 4.15873C17.1604 4.2908 17.315 4.43636 17.4554 4.59376C18.3327 5.57782 18.3327 7.05177 18.3327 9.99967C18.3327 12.9476 18.3327 14.4215 17.4554 15.4056C17.315 15.563 17.1604 15.7085 16.9931 15.8406C15.9476 16.6663 14.3815 16.6663 11.2493 16.6663H8.74935C5.6172 16.6663 4.05113 16.6663 3.00556 15.8406C2.83833 15.7085 2.68367 15.563 2.54335 15.4056C1.66602 14.4215 1.66602 12.9476 1.66602 9.99967Z" stroke="#6B7280" stroke-width="1.5" stroke-linecap="round" stroke-linejoin="round"/>
  <path d="M8.33203 13.333H9.58203" stroke="#6B7280" stroke-width="1.5" stroke-miterlimit="10" stroke-linecap="round" stroke-linejoin="round"/>
  <path d="M12.082 13.333L14.9987 13.333" stroke="#6B7280" stroke-width="1.5" stroke-miterlimit="10" stroke-linecap="round" stroke-linejoin="round"/>
  <path d="M1.66602 7.5H18.3327" stroke="#6B7280" stroke-width="1.5" stroke-linejoin="round"/>
</svg>