<svg width="1" height="1" viewBox="0 0 1 1" fill="none" xmlns="http://www.w3.org/2000/svg">
  <g clip-path="url(#clip0_0_194)">
    <path d="M0.493275 0.0784314C0.722387 0.0784314 0.908119 0.264163 0.908119 0.493275C0.908119 0.722387 0.722387 0.908119 0.493275 0.908119C0.264163 0.908119 0.0784314 0.722387 0.0784314 0.493275C0.0784314 0.264163 0.264163 0.0784314 0.493275 0.0784314ZM0.493275 0.140658C0.29853 0.140658 0.140658 0.29853 0.140658 0.493275C0.140658 0.68802 0.29853 0.845892 0.493275 0.845892C0.68802 0.845892 0.845892 0.68802 0.845892 0.493275C0.845892 0.29853 0.68802 0.140658 0.493275 0.140658ZM0.636239 0.343809L0.639728 0.346822C0.650774 0.357867 0.651779 0.375152 0.642741 0.387333L0.639728 0.390822L0.53729 0.493275L0.639728 0.595728C0.650774 0.606774 0.651779 0.624059 0.642741 0.636239L0.639728 0.639728C0.628683 0.650774 0.611398 0.651779 0.599217 0.642741L0.595728 0.639728L0.493275 0.53729L0.390822 0.639728C0.379776 0.650774 0.362491 0.651779 0.350311 0.642741L0.346822 0.639728C0.335776 0.628683 0.334771 0.611398 0.343809 0.599217L0.346822 0.595728L0.44926 0.493275L0.346822 0.390822C0.335776 0.379776 0.334771 0.362491 0.343809 0.350311L0.346822 0.346822C0.357867 0.335776 0.375152 0.334771 0.387333 0.343809L0.390822 0.346822L0.493275 0.44926L0.595728 0.346822C0.606774 0.335776 0.624059 0.334771 0.636239 0.343809Z" fill="#E5E7EB"/>
  </g>
  <defs>
    <clipPath id="clip0_0_194">
      <rect width="0.0495868" height="0.0495868" fill="white" transform="scale(20.0784)"/>
    </clipPath>
  </defs>
</svg>