<svg width="20" height="20" viewBox="0 0 20 20" fill="none" xmlns="http://www.w3.org/2000/svg">
  <path d="M7.08203 12.083H12.9154M7.08203 7.91634H9.9987" stroke="#6B7280" stroke-width="1.5" stroke-linecap="round" stroke-linejoin="round"/>
  <path d="M11.8082 17.4084C15.294 17.1767 18.0707 14.3607 18.2992 10.8254C18.3439 10.1336 18.3439 9.41711 18.2992 8.72528C18.0707 5.18999 15.294 2.37395 11.8082 2.14224C10.619 2.06318 9.37732 2.06335 8.19051 2.14224C4.70467 2.37395 1.92802 5.18999 1.69955 8.72528C1.65484 9.41711 1.65484 10.1336 1.69955 10.8254C1.78276 12.113 2.35221 13.3052 3.0226 14.3118C3.41186 15.0166 3.15497 15.8962 2.74953 16.6645C2.45719 17.2185 2.31102 17.4955 2.42838 17.6956C2.54575 17.8957 2.8079 17.9021 3.3322 17.9148C4.36907 17.9401 5.06825 17.6461 5.62325 17.2369C5.93802 17.0047 6.0954 16.8887 6.20388 16.8753C6.31235 16.862 6.52582 16.9499 6.95269 17.1257C7.33635 17.2838 7.78182 17.3813 8.19051 17.4084C9.37732 17.4873 10.619 17.4875 11.8082 17.4084Z" stroke="#6B7280" stroke-width="1.5" stroke-linejoin="round"/>
</svg>