<svg width="20" height="20" viewBox="0 0 20 20" fill="none" xmlns="http://www.w3.org/2000/svg">
  <path d="M10.4154 6.66602L8.33203 9.99935H11.6654L9.58203 13.3327" stroke="#6B7280" stroke-width="1.5" stroke-linecap="round" stroke-linejoin="round"/>
  <path d="M17.5085 11.7823C17.9434 11.6626 18.1609 11.6027 18.2468 11.4883C18.3327 11.3739 18.3327 11.1899 18.3327 10.8218L18.3327 9.17767C18.3327 8.80955 18.3327 8.6255 18.2468 8.51109C18.1609 8.39668 17.9434 8.33684 17.5085 8.21716C15.8832 7.76993 14.8659 6.03619 15.2854 4.38869C15.4008 3.9356 15.4585 3.70906 15.4034 3.57619C15.3483 3.44332 15.1902 3.35176 14.8741 3.16864L13.4369 2.33603C13.1267 2.15634 12.9716 2.06649 12.8324 2.08562C12.6932 2.10476 12.5361 2.26461 12.2221 2.58431C11.006 3.82208 8.994 3.82203 7.77796 2.58423C7.46388 2.26453 7.30683 2.10468 7.16763 2.08554C7.02842 2.06641 6.87332 2.15625 6.56313 2.33595L5.12588 3.16856C4.80979 3.35167 4.65174 3.44322 4.59666 3.57608C4.54158 3.70893 4.59924 3.93549 4.71455 4.38862C5.13383 6.03617 4.11578 7.76997 2.4902 8.21718C2.05528 8.33683 1.83782 8.39665 1.75192 8.51107C1.66602 8.62548 1.66602 8.80954 1.66602 9.17767L1.66602 10.8218C1.66602 11.1899 1.66602 11.3739 1.75191 11.4883C1.83781 11.6027 2.05527 11.6626 2.4902 11.7823C4.11551 12.2295 5.13275 13.9632 4.71328 15.6107C4.59792 16.0638 4.54024 16.2904 4.59532 16.4232C4.6504 16.5561 4.80845 16.6477 5.12456 16.8308L6.56181 17.6634C6.87202 17.8431 7.02713 17.933 7.16635 17.9138C7.30557 17.8947 7.46258 17.7348 7.77661 17.4151C8.9933 16.1763 11.0067 16.1762 12.2234 17.415C12.5374 17.7347 12.6945 17.8946 12.8337 17.9137C12.9729 17.9329 13.128 17.843 13.4382 17.6633L14.8755 16.8307C15.1916 16.6476 15.3496 16.556 15.4047 16.4231C15.4598 16.2902 15.4021 16.0637 15.2867 15.6107C14.867 13.9632 15.8835 12.2295 17.5085 11.7823Z" stroke="#6B7280" stroke-width="1.5" stroke-linecap="round"/>
</svg>