<svg width="23" height="23" viewBox="0 0 23 23" fill="none" xmlns="http://www.w3.org/2000/svg">
  <path d="M11.5026 8.62435C10.4441 8.62435 9.58594 9.26794 9.58594 10.0618C9.58594 10.8558 10.4441 11.4993 11.5026 11.4993C12.5611 11.4993 13.4193 12.1429 13.4193 12.9368C13.4193 13.7308 12.5611 14.3743 11.5026 14.3743M11.5026 8.62435C12.3371 8.62435 13.0471 9.02436 13.3102 9.58268M11.5026 8.62435V7.66602M11.5026 14.3743C10.6681 14.3743 9.95812 13.9743 9.695 13.416M11.5026 14.3743V15.3327" stroke="#6CA700" stroke-width="1.5" stroke-linecap="round"/>
  <path d="M12.459 2.39551C12.459 2.39551 12.1561 2.39551 11.5007 2.39551C7.20891 2.39551 5.06303 2.39551 3.72976 3.72879C2.39648 5.06206 2.39648 7.20793 2.39648 11.4997C2.39648 15.7914 2.39648 17.9373 3.72976 19.2706C5.06303 20.6038 7.20891 20.6038 11.5007 20.6038C15.7924 20.6038 17.9383 20.6038 19.2715 19.2706C20.6048 17.9373 20.6048 15.7914 20.6048 11.4997C20.6048 10.8443 20.6048 10.5413 20.6048 10.5413" stroke="#6CA700" stroke-width="1.5" stroke-linecap="round"/>
  <path d="M15.7249 6.17566C15.4306 6.46719 15.4284 6.94206 15.7199 7.2363C16.0115 7.53055 16.4863 7.53276 16.7806 7.24123L15.7249 6.17566ZM21.1333 2.92869C21.4276 2.63716 21.4298 2.16229 21.1383 1.86804C20.8467 1.57379 20.3719 1.57159 20.0776 1.86312L21.1333 2.92869ZM16.745 6.97001L16.8758 6.2315H16.8758L16.745 6.97001ZM16.0316 6.25635L15.293 6.38701V6.38701L16.0316 6.25635ZM20.1162 7.93352C20.5304 7.93919 20.8707 7.60803 20.8764 7.19386C20.8821 6.77968 20.5509 6.43933 20.1367 6.43366L20.1162 7.93352ZM16.5679 2.86479C16.5622 2.45062 16.2219 2.11948 15.8077 2.12518C15.3935 2.13087 15.0624 2.47125 15.0681 2.88542L16.5679 2.86479ZM16.7806 7.24123L21.1333 2.92869L20.0776 1.86312L15.7249 6.17566L16.7806 7.24123ZM16.8758 6.2315C16.8334 6.224 16.813 6.20877 16.8029 6.19869C16.7928 6.18859 16.7776 6.16812 16.7701 6.12569L15.293 6.38701C15.4142 7.07207 15.9289 7.58715 16.6142 7.70851L16.8758 6.2315ZM16.6142 7.70851C17.5896 7.88126 19.3149 7.92256 20.1162 7.93352L20.1367 6.43366C19.3047 6.42228 17.7085 6.37897 16.8758 6.2315L16.6142 7.70851ZM15.0681 2.88542C15.0791 3.68673 15.1205 5.41176 15.293 6.38701L16.7701 6.12569C16.6228 5.29292 16.5794 3.69676 16.5679 2.86479L15.0681 2.88542Z" fill="#6CA700"/>
</svg>